{
    "asset": {
        "version": "2.0",
        "generator": "Open Asset Import Library (assimp v5.4.0)"
    },
    "extensionsUsed": [
        "KHR_materials_volume",
        "FB_ngon_encoding"
    ],
    "accessors": [
        {
            "bufferView": 0,
            "byteOffset": 0,
            "componentType": 5126,
            "count": 716034,
            "type": "VEC3",
            "max": [
                205.0,
                154.5,
                10.0
            ],
            "min": [
                -205.0,
                -154.5,
                -10.0
            ]
        },
        {
            "bufferView": 1,
            "byteOffset": 0,
            "componentType": 5126,
            "count": 716034,
            "type": "VEC3",
            "max": [
                1.0,
                1.0,
                1.0
            ],
            "min": [
                -1.0,
                -1.0,
                -1.0
            ]
        },
        {
            "bufferView": 2,
            "byteOffset": 0,
            "componentType": 5126,
            "count": 716034,
            "type": "VEC2",
            "max": [
                1.0,
                1.0
            ],
            "min": [
                0.0,
                0.0
            ]
        },
        {
            "bufferView": 3,
            "byteOffset": 0,
            "componentType": 5125,
            "count": 728328,
            "type": "SCALAR",
            "max": [
                716033
            ],
            "min": [
                0
            ]
        }
    ],
    "buffers": [
        {
            "byteLength": 25826400,
            "uri": "PXL_20250219_163912081_exported_97_1740059700956_0.bin"
        }
    ],
    "bufferViews": [
        {
            "buffer": 0,
            "byteOffset": 0,
            "byteLength": 8592408,
            "target": 34962
        },
        {
            "buffer": 0,
            "byteOffset": 8592408,
            "byteLength": 8592408,
            "target": 34962
        },
        {
            "buffer": 0,
            "byteOffset": 17184816,
            "byteLength": 5728272,
            "target": 34962
        },
        {
            "buffer": 0,
            "byteOffset": 22913088,
            "byteLength": 2913312,
            "target": 34963
        }
    ],
    "images": [
        {
            "uri": "textures/image_0.png"
        }
    ],
    "materials": [
        {
            "name": "Default Material",
            "pbrMetallicRoughness": {
                "baseColorTexture": {
                    "index": 0
                },
                "baseColorFactor": [
                    0.4019777774810791,
                    0.4019777774810791,
                    0.4019777774810791,
                    1.0
                ],
                "metallicFactor": 0.30000001192092896,
                "roughnessFactor": 0.44999998807907104
            }
        }
    ],
    "meshes": [
        {
            "name": "meshes[0]",
            "primitives": [
                {
                    "mode": 4,
                    "material": 0,
                    "indices": 3,
                    "attributes": {
                        "POSITION": 0,
                        "NORMAL": 1,
                        "TEXCOORD_0": 2
                    }
                }
            ]
        }
    ],
    "nodes": [
        {
            "name": "PXL_20250219_163912081_exported_97_1740059700956",
            "children": [
                1
            ]
        },
        {
            "name": "nodes[0]",
            "mesh": 0
        }
    ],
    "samplers": [
        {
            "wrapS": 33071,
            "wrapT": 33071,
            "magFilter": 9729,
            "minFilter": 9987
        }
    ],
    "scenes": [
        {
            "nodes": [
                0
            ]
        }
    ],
    "textures": [
        {
            "source": 0,
            "sampler": 0
        }
    ],
    "scene": 0
}